<mxfile host="app.diagrams.net" modified="2024-09-21T07:51:21.228Z" agent="Mozilla/5.0 (Windows NT 10.0; Win64; x64) AppleWebKit/537.36 (KHTML, like Gecko) Chrome/129.0.0.0 Safari/537.36" version="24.4.8" etag="Y7Pqif6qFKC8a95sD1Dd" type="github">
  <diagram name="페이지-1" id="t9aAQHzkiYmIE_g6wPJl">
    <mxGraphModel>
      <root>
        <mxCell id="0" />
        <mxCell id="1" parent="0" />
      </root>
    </mxGraphModel>
  </diagram>
</mxfile>
